<?xml version="1.0" encoding="UTF-8" standalone="no"?>
<!-- Generator: Adobe Illustrator 17.1.0, SVG Export Plug-In . SVG Version: 6.00 Build 0)  -->

<svg
   xmlns:dc="http://purl.org/dc/elements/1.1/"
   xmlns:cc="http://creativecommons.org/ns#"
   xmlns:rdf="http://www.w3.org/1999/02/22-rdf-syntax-ns#"
   xmlns:svg="http://www.w3.org/2000/svg"
   xmlns="http://www.w3.org/2000/svg"
   xmlns:sodipodi="http://sodipodi.sourceforge.net/DTD/sodipodi-0.dtd"
   xmlns:inkscape="http://www.inkscape.org/namespaces/inkscape"
   version="1.1"
   id="Capa_1"
   x="0px"
   y="0px"
   viewBox="0 0 470 470"
   xml:space="preserve"
   sodipodi:docname="robin2.svg"
   style="enable-background:new 0 0 470 470;"
   inkscape:version="0.92.3 (2405546, 2018-03-11)"><metadata
   id="metadata3775"><rdf:RDF><cc:Work
       rdf:about=""><dc:format>image/svg+xml</dc:format><dc:type
         rdf:resource="http://purl.org/dc/dcmitype/StillImage" /></cc:Work></rdf:RDF></metadata><defs
   id="defs3773" /><sodipodi:namedview
   pagecolor="#ffffff"
   bordercolor="#666666"
   borderopacity="1"
   objecttolerance="10"
   gridtolerance="10"
   guidetolerance="10"
   inkscape:pageopacity="0"
   inkscape:pageshadow="2"
   inkscape:window-width="1920"
   inkscape:window-height="1028"
   id="namedview3771"
   showgrid="true"
   inkscape:zoom="1.2592519"
   inkscape:cx="264.77483"
   inkscape:cy="148.24712"
   inkscape:window-x="0"
   inkscape:window-y="0"
   inkscape:window-maximized="1"
   inkscape:current-layer="Capa_1" />
<g
   id="g3768">
	<path
   d="M 468.274,395.843 201.373,73.765 c -15.61,-18.84 -38.584,-29.646 -63.03,-29.646 -42.437,0 -77.521,32.587 -81.453,74.052 H 37.265 c -4.143,0 -7.5,3.358 -7.5,7.5 0,4.142 3.357,7.5 7.5,7.5 h 8.469 C 16.485,165.232 0,207.247 0,251.029 0,347.442 78.438,425.88 174.853,425.88 c 45.91,0 89.284,-17.659 122.131,-49.723 28.247,-27.575 46.04,-63.173 51.175,-101.754 l 108.567,131.01 c 2.641,3.189 7.37,3.632 10.56,0.989 3.19,-2.643 3.632,-7.37 0.988,-10.559 z M 66.902,133.171 h 51.441 c 4.143,0 7.5,-3.358 7.5,-7.5 0,-4.142 -3.357,-7.5 -7.5,-7.5 H 71.988 c 0.78,-6.686 2.551,-13.073 5.165,-19.014 h 41.19 c 14.77,0 26.786,12.017 26.786,26.787 0,5.865 -1.861,11.435 -5.384,16.106 -2.246,2.979 -1.961,7.155 0.668,9.802 23.522,23.671 36.834,54.811 37.705,88.02 L 47.777,347.885 C 27.227,320.989 15,287.413 15,251.029 15,206.219 33.89,163.431 66.902,133.171 Z"
   id="path3764"
   inkscape:connector-curvature="0"
   sodipodi:nodetypes="ccscssscsscccsccsssccssccccsc" />
	<path
   d="M361.073,326.344c-2.642-3.189-7.37-3.633-10.56-0.989c-3.189,2.643-3.633,7.371-0.989,10.561l57.593,69.499   c1.482,1.79,3.622,2.714,5.778,2.714c1.686,0,3.382-0.565,4.781-1.725c3.189-2.643,3.633-7.371,0.989-10.561L361.073,326.344z"
   id="path3766" />
</g>
</svg>